<mxfile host="Electron" modified="2024-07-04T20:30:08.162Z" agent="Mozilla/5.0 (Windows NT 10.0; Win64; x64) AppleWebKit/537.36 (KHTML, like Gecko) draw.io/22.1.16 Chrome/120.0.6099.109 Electron/28.1.0 Safari/537.36" etag="yZNid-VIrzDKjnIi4jHd" version="22.1.16" type="device">
  <diagram name="Pagina-1" id="1ivvULd6SqNErC4kCiVV">
    <mxGraphModel dx="819" dy="478" grid="1" gridSize="10" guides="1" tooltips="1" connect="1" arrows="1" fold="1" page="1" pageScale="1" pageWidth="850" pageHeight="1100" math="0" shadow="0">
      <root>
        <mxCell id="0" />
        <mxCell id="1" parent="0" />
        <mxCell id="xihzh0UQp3UVXtUTC6Pa-1" value="Preparazione gioco" style="swimlane;whiteSpace=wrap;html=1;" vertex="1" parent="1">
          <mxGeometry x="320" y="40" width="200" height="280" as="geometry" />
        </mxCell>
        <mxCell id="xihzh0UQp3UVXtUTC6Pa-2" value="inserimento nome" style="ellipse;whiteSpace=wrap;html=1;" vertex="1" parent="xihzh0UQp3UVXtUTC6Pa-1">
          <mxGeometry x="30" y="40" width="140" height="70" as="geometry" />
        </mxCell>
        <mxCell id="xihzh0UQp3UVXtUTC6Pa-3" value="definizione nuovo codice segreto" style="ellipse;whiteSpace=wrap;html=1;" vertex="1" parent="xihzh0UQp3UVXtUTC6Pa-1">
          <mxGeometry x="30" y="160" width="140" height="70" as="geometry" />
        </mxCell>
        <mxCell id="xihzh0UQp3UVXtUTC6Pa-4" value="Decoder" style="shape=umlActor;verticalLabelPosition=bottom;verticalAlign=top;html=1;" vertex="1" parent="1">
          <mxGeometry x="150" y="80" width="30" height="60" as="geometry" />
        </mxCell>
        <mxCell id="xihzh0UQp3UVXtUTC6Pa-5" value="" style="endArrow=open;endFill=1;endSize=12;html=1;rounded=0;exitX=0.5;exitY=0.5;exitDx=0;exitDy=0;exitPerimeter=0;" edge="1" parent="1" source="xihzh0UQp3UVXtUTC6Pa-4">
          <mxGeometry width="160" relative="1" as="geometry">
            <mxPoint x="300" y="220" as="sourcePoint" />
            <mxPoint x="320" y="110" as="targetPoint" />
          </mxGeometry>
        </mxCell>
        <mxCell id="xihzh0UQp3UVXtUTC6Pa-8" value="Encoder" style="shape=umlActor;verticalLabelPosition=bottom;verticalAlign=top;html=1;" vertex="1" parent="1">
          <mxGeometry x="150" y="200" width="30" height="60" as="geometry" />
        </mxCell>
        <mxCell id="xihzh0UQp3UVXtUTC6Pa-9" value="" style="endArrow=open;endFill=1;endSize=12;html=1;rounded=0;exitX=0.5;exitY=0.5;exitDx=0;exitDy=0;exitPerimeter=0;" edge="1" parent="1" source="xihzh0UQp3UVXtUTC6Pa-8">
          <mxGeometry width="160" relative="1" as="geometry">
            <mxPoint x="175" y="240" as="sourcePoint" />
            <mxPoint x="320" y="230" as="targetPoint" />
          </mxGeometry>
        </mxCell>
      </root>
    </mxGraphModel>
  </diagram>
</mxfile>
